<svg viewBox="0 0 96 96" xmlns="http://www.w3.org/2000/svg" xmlns:xlink="http://www.w3.org/1999/xlink" id="Icons_Medical" overflow="hidden"><path d="M48 16C30.3 16 16 30.3 16 48 16 65.7 30.3 80 48 80 65.7 80 80 65.7 80 48 80 30.3 65.7 16 48 16ZM48 86C27 86 10 69 10 48 10 27 27 10 48 10 69 10 86 27 86 48 86 69 69 86 48 86Z"/><path d="M68 40 56 40 56 28C56 25.8 54.2 24 52 24L44 24C41.8 24 40 25.8 40 28L40 40 28 40C25.8 40 24 41.8 24 44L24 52C24 54.2 25.8 56 28 56L40 56 40 68C40 70.2 41.8 72 44 72L52 72C54.2 72 56 70.2 56 68L56 56 68 56C70.2 56 72 54.2 72 52L72 44C72 41.8 70.2 40 68 40Z"/></svg>